<?xml version="1.0" encoding="utf-8"?>
<!-- Generator: Adobe Illustrator 16.0.4, SVG Export Plug-In . SVG Version: 6.00 Build 0)  -->
<!DOCTYPE svg PUBLIC "-//W3C//DTD SVG 1.1//EN" "http://www.w3.org/Graphics/SVG/1.1/DTD/svg11.dtd">
<svg version="1.1" id="Layer_2" xmlns="http://www.w3.org/2000/svg" xmlns:xlink="http://www.w3.org/1999/xlink" x="0px" y="0px"
	 width="336.353px" height="57.654px" viewBox="0 0 336.353 57.654" enable-background="new 0 0 336.353 57.654"
	 xml:space="preserve">
<g>
	<path fill="#FFFFFF" d="M46.839,36.696v8.95H39.53v11.412H29.163V45.646H1.939L0,40.873L31.325,4.475h8.205v32.221H46.839z
		 M29.163,36.696V20.511L15.215,36.696H29.163z"/>
	<path fill="#FFFFFF" d="M53.1,6.116C53.1,2.76,55.785,0,59.066,0s5.893,2.76,5.893,6.116s-2.611,6.041-5.893,6.041
		S53.1,9.473,53.1,6.116z M53.92,16.558h10.368v40.5H53.92V16.558z"/>
	<path fill="#FFFFFF" d="M75.622,46.094c4.997,2.163,8.801,3.282,13.873,3.282c4.773,0,6.638-1.79,6.638-3.878
		c0-2.312-2.312-3.356-8.577-4.699c-8.727-1.939-15.066-4.773-15.066-12.604c0-7.31,6.042-12.381,15.439-12.381
		c6.339,0,11.411,1.492,15.812,3.282l-3.431,7.608c-3.953-1.492-8.577-2.611-12.605-2.611c-3.953,0-5.967,1.417-5.967,3.58
		c0,2.238,2.461,3.282,8.95,4.625c9.398,1.939,14.842,5.221,14.842,12.605c0,7.682-5.892,12.754-16.259,12.754
		c-7.011,0-11.561-0.97-17.527-3.878L75.622,46.094z"/>
	<path fill="#FFFFFF" d="M125.144,25.135v14.32c0,7.235,1.193,9.323,6.415,9.323c1.79,0,3.356-0.224,4.773-0.373v7.757
		c-0.448,0.149-3.58,1.492-9.398,1.492c-6.787,0-12.231-4.251-12.231-12.754V25.135h-5.743v-8.577h5.743V0.82h10.441v15.738h11.337
		v8.577H125.144z"/>
	<path fill="#FFFFFF" d="M150.5,39.754c1.119,5.295,5.37,9.025,11.561,9.025c4.251,0,8.205-1.939,10.442-4.998l6.638,5.52
		c-3.729,5.072-10.367,8.354-18.273,8.354c-12.232,0-20.734-9.323-20.734-20.884c0-11.635,8.502-20.958,20.734-20.958
		c12.456,0,19.69,9.025,19.69,21.63c0,0.82-0.074,1.641-0.074,2.312H150.5z M150.575,33.116h20.063
		c-0.373-4.624-2.834-9.025-9.771-9.025C155.423,24.091,151.544,28.119,150.575,33.116z"/>
	<path fill="#FFFFFF" d="M226.423,34.458v22.599h-10.367V34.458c0-6.265-3.058-9.323-8.801-9.323c-3.654,0-6.638,1.193-8.95,3.207
		v28.715h-10.367v-40.5h10.367v2.536c2.983-2.088,6.713-3.282,10.815-3.282C220.979,15.812,226.423,21.332,226.423,34.458z"/>
	<path fill="#FFFFFF" d="M239.472,57.729c-3.282,0-5.893-2.685-5.893-6.116c0-3.356,2.61-6.042,5.893-6.042
		c3.281,0,5.967,2.686,5.967,6.042C245.438,55.044,242.753,57.729,239.472,57.729z"/>
	<path fill="#FFFFFF" d="M288.1,49.524c-3.655,4.997-9.397,8.13-15.663,8.13c-12.232,0-22.152-9.323-22.152-20.884
		c0-11.635,9.92-20.958,22.152-20.958c6.489,0,12.157,3.133,15.812,8.055l-6.713,6.19c-2.014-2.983-5.37-4.922-9.099-4.922
		c-6.563,0-11.934,5.221-11.934,11.635c0,6.34,5.37,11.561,11.934,11.561c3.729,0,7.085-1.939,9.099-4.997L288.1,49.524z"/>
	<path fill="#FFFFFF" d="M336.353,36.771c0,11.561-9.92,20.884-22.152,20.884s-22.152-9.323-22.152-20.884
		c0-11.635,9.92-20.958,22.152-20.958S336.353,25.135,336.353,36.771z M326.135,36.771c0-6.414-5.295-11.635-11.934-11.635
		c-6.563,0-11.934,5.221-11.934,11.635c0,6.34,5.37,11.561,11.934,11.561C320.839,48.331,326.135,43.11,326.135,36.771z"/>
</g>
</svg>
