<?xml version="1.0" encoding="utf-8"?>
<!-- Generator: Adobe Illustrator 16.0.4, SVG Export Plug-In . SVG Version: 6.00 Build 0)  -->
<!DOCTYPE svg PUBLIC "-//W3C//DTD SVG 1.1//EN" "http://www.w3.org/Graphics/SVG/1.1/DTD/svg11.dtd">
<svg version="1.1" id="planner" xmlns="http://www.w3.org/2000/svg" xmlns:xlink="http://www.w3.org/1999/xlink" x="0px" y="0px"
	 width="260px" height="260px" viewBox="0 0 260 260" enable-background="new 0 0 260 260" xml:space="preserve">
<circle fill="#EAE794" cx="130" cy="130" r="128"/>
<path fill="#CCC76E" d="M257.985,131.173l-69.739-69.738l-0.01,0.01c-0.016-0.016-0.025-0.035-0.041-0.051
	c-2.008-2-5.352-1.936-7.436,0.158l-9.492,9.482c-0.943,0.942-1.451,2.141-1.566,3.354l-35.273-35.273l-1.01-1.01
	c-0.84-0.626-1.861-1.004-2.965-1.004c-2.834,0-5.148,2.418-5.148,5.373v13.42c0,1.286,0.457,2.453,1.186,3.378l0.928,0.928
	l8.734,8.733c-1.689-0.188-3.402-0.297-5.143-0.297c-12.016,0-22.951,4.617-31.143,12.168L80.314,61.251l-0.053,0.052l-0.381-0.382
	c-2.086-2.094-5.438-2.158-7.428-0.166c-2.012,2.01-1.938,5.352,0.146,7.438l0.387,0.386v0.001l20.08,20.081
	c-5.055,7.38-8.018,16.307-8.018,25.929c0,6.3,1.652,12.771,4.168,18.927l-17.756-17.757l-1.508-1.506
	c-0.859-0.563-1.896-0.895-3.012-0.895H53.523c-2.945,0-5.363,2.314-5.363,5.139c0,1.029,0.326,1.985,0.873,2.791l1.387,1.387
	l56.705,56.706c-0.926,1.265-1.48,2.797-1.48,4.454v5.375l-2.686,0.33c-2.854,0.352-4.898,2.971-4.549,5.824l0.057,0.492
	l0.018,0.166c0.354,2.852,2.975,4.898,5.826,4.547l1.334-0.166v5.691l-2.686,0.328c-2.854,0.352-4.898,2.973-4.549,5.826
	l0.029,0.275l0.045,0.381c0.115,0.935,0.492,1.77,1.025,2.477l1.094,1.094l40.994,40.995l0.001,0
	C206.471,251.643,257.39,197.422,257.985,131.173z"/>
<g>
	<path fill="#616163" d="M163.535,204.321v-0.039c-0.354-2.852-2.975-4.896-5.826-4.547l-1.334,0.164v-5.684l2.686-0.324
		c2.852-0.352,4.898-2.973,4.547-5.824l-0.045-0.418l0,0l-0.027-0.25c-0.354-2.852-2.975-4.898-5.826-4.547l-1.379,0.168
		c-0.428-3.916-3.898-6.994-8.086-6.994h-34.469c-4.473,0-8.131,3.512-8.131,7.809v5.375l-2.686,0.33
		c-2.854,0.352-4.898,2.971-4.549,5.824l0.057,0.492l0.018,0.166c0.354,2.852,2.975,4.898,5.826,4.547l1.334-0.166v5.691
		l-2.686,0.328c-2.854,0.352-4.898,2.973-4.549,5.826l0.029,0.275l0,0l0.045,0.381c0.354,2.852,2.975,4.908,5.826,4.557l1.787-0.223
		c0.99,3.24,4,5.66,7.678,5.66h34.469c4.473,0,8.131-3.512,8.131-7.809v-3.992l2.686-0.324c2.852-0.352,4.898-2.973,4.547-5.824
		L163.535,204.321z"/>
	<path fill="#939396" d="M157.709,199.735l-1.334,0.164l-50.73,6.195l-2.686,0.328c-2.854,0.352-4.898,2.973-4.549,5.826
		l0.029,0.275l7.205-0.908l57.891-7.295v-0.039C163.182,201.431,160.561,199.386,157.709,199.735z"/>
	<path fill="#939396" d="M163.535,187.399c-0.354-2.852-2.975-4.898-5.826-4.547l-1.379,0.168l-50.686,6.189l-2.686,0.33
		c-2.854,0.352-4.898,2.971-4.549,5.824l0.057,0.492l57.908-7.301l7.188-0.906L163.535,187.399z"/>
</g>
<g>
	<path fill="#FBEEBF" d="M135.594,55.894c0,2.953-2.316,5.361-5.141,5.361c-2.834,0-5.148-2.408-5.148-5.361v-13.42
		c0-2.955,2.314-5.373,5.148-5.373c2.824,0,5.141,2.418,5.141,5.373V55.894z"/>
	<path fill="#FBEEBF" d="M66.941,113.358c2.955,0,5.363,2.314,5.363,5.139c0,2.834-2.408,5.148-5.363,5.148H53.523
		c-2.945,0-5.363-2.314-5.363-5.148c0-2.824,2.418-5.139,5.363-5.139H66.941z"/>
	<path fill="#FBEEBF" d="M89.373,70.405c2.084,2.084,2.148,5.426,0.156,7.426c-2.01,2.012-5.352,1.936-7.436-0.156L72.6,68.192
		c-2.084-2.086-2.158-5.428-0.146-7.438c1.99-1.992,5.342-1.928,7.428,0.166L89.373,70.405z"/>
	<path fill="#FBEEBF" d="M178.547,78.315c-2.084,2.082-5.438,2.156-7.428,0.156c-2.01-2.002-1.945-5.346,0.148-7.438l9.492-9.482
		c2.084-2.094,5.428-2.158,7.436-0.158c1.992,2.002,1.926,5.344-0.158,7.438L178.547,78.315z"/>
	<path fill="#FBEEBF" d="M193.059,124.536c-2.945,0-5.363-2.316-5.363-5.139c0-2.826,2.418-5.141,5.363-5.141h13.418
		c2.955,0,5.363,2.314,5.363,5.141c0,2.822-2.408,5.139-5.363,5.139H193.059z"/>
</g>
<g>
	<path fill="#D1C69F" d="M131.01,68.636c-25.375,0-45.961,20.57-45.961,45.953c0,15.299,9.74,31.619,17.928,41.926
		c7.002,8.797,5.141,16.104,5.871,21.271c1.391-1.037,3.049-1.76,4.928-1.76h34.469c1.881,0,3.537,0.723,4.928,1.76
		c0.73-5.168-1.141-12.475,5.861-21.271c8.195-10.307,17.939-26.627,17.939-41.926C176.973,89.206,156.385,68.636,131.01,68.636z"/>
	<path fill="#FBEEBF" d="M111.506,176.343c0.721-0.201,1.482-0.316,2.27-0.316h34.469c0.797,0,1.57,0.113,2.299,0.322
		c-0.043-7.754,0.609-14.533,6.248-21.617c5.205-6.549,17.316-23.566,17.316-40.143c0-23.76-19.334-43.088-43.098-43.088
		s-43.096,19.328-43.096,43.088c0,16.564,12.104,33.594,17.305,40.141C110.861,161.821,111.861,168.368,111.506,176.343z"/>
</g>
<g>
	<path fill="#779D78" d="M130,150.806c-9.404,0-17.055-7.652-17.055-17.057h10.043c0,3.867,3.146,7.012,7.012,7.012
		s7.012-3.145,7.012-7.012c0-4.16-3.971-6.572-7.658-7.053c-9.662-1.25-16.408-8.248-16.408-17.012
		c0-9.404,7.65-17.057,17.055-17.057s17.055,7.652,17.055,17.057h-10.043c0-3.867-3.146-7.012-7.012-7.012s-7.012,3.145-7.012,7.012
		c0,4.471,4.125,6.594,7.658,7.051c9.508,1.236,16.408,8.391,16.408,17.014C147.055,143.153,139.404,150.806,130,150.806z"/>
	<path fill="#779D78" d="M130,150.806c-2.096,0-4.094-0.398-5.947-1.092v6.432h11.895v-6.432
		C134.092,150.407,132.094,150.806,130,150.806z"/>
	<path fill="#779D78" d="M130,92.628c2.094,0,4.092,0.396,5.947,1.092v-6.43h-11.895v6.43C125.906,93.024,127.904,92.628,130,92.628
		z"/>
</g>
</svg>
