<?xml version="1.0" encoding="utf-8"?>
<!-- Generator: Adobe Illustrator 16.0.4, SVG Export Plug-In . SVG Version: 6.00 Build 0)  -->
<!DOCTYPE svg PUBLIC "-//W3C//DTD SVG 1.1//EN" "http://www.w3.org/Graphics/SVG/1.1/DTD/svg11.dtd">
<svg version="1.1" id="planner" xmlns="http://www.w3.org/2000/svg" xmlns:xlink="http://www.w3.org/1999/xlink" x="0px" y="0px"
	 width="260px" height="260px" viewBox="0 0 260 260" enable-background="new 0 0 260 260" xml:space="preserve">
<circle fill="#EAE794" cx="130" cy="130" r="128"/>
<path fill="#CCC76E" d="M256.666,148.488l-91.479-91.479l-6.738-6.738c-16.371-12.346-42.014-9.295-51.769-0.323
	c-8.468-0.4-22.354,10.068-19.047,38.525c0.474,4.078,1.353,8.599,2.606,13.076c-0.289,0.694-0.428,1.469-0.338,2.277l3.463,17.938
	c0.813,5.146,3.517,4.402,5.447,3.897c1.391,5.926,3.344,11.551,6.027,16.41l0.562,6.171c-0.09-0.337-0.159-0.671-0.201-0.998
	c-0.354,0.88-0.673,1.767-0.971,2.659l-0.027-0.168l-9.102,10.348l-2.854,0.901l-53.594,17.59l0.117,0.649l-0.127-0.649
	l-6.34,34.117C55.783,240.403,90.834,258,130,258C194.413,258,247.705,210.418,256.666,148.488z"/>
<g>
	<defs>
		<circle id="SVGID_1_" cx="130" cy="130" r="128"/>
	</defs>
	<clipPath id="SVGID_2_">
		<use xlink:href="#SVGID_1_"  overflow="visible"/>
	</clipPath>
	<g clip-path="url(#SVGID_2_)">
		<g>
			<g>
				<g>
					<polygon fill="#E6DAAF" points="130.033,130.614 103.795,130.614 107.684,173.285 130.033,173.285 152.383,173.285 
						156.271,130.614 					"/>
				</g>
				<path fill="#D1C69F" d="M152.383,173.285l3.888-42.671h-26.237h-26.238l1.043,11.45c0.975,1.763,2.037,3.431,3.213,4.967
					l5.872,5.873l20.381,20.381H152.383z"/>
			</g>
			<g>
				<g>
					<path fill="#E6DAAF" d="M100.099,121.106c0.267,2.403,0.835,4.008-1.104,4.509c-1.938,0.499-4.791,1.458-5.63-3.85
						l-3.463-17.938c-0.266-2.402,1.35-4.579,3.604-4.865l0,0c2.258-0.281,4.302,1.436,4.567,3.84L100.099,121.106z"/>
					<path fill="#E6DAAF" d="M160.637,121.106c-0.265,2.403-0.834,4.008,1.104,4.509c1.939,0.499,4.793,1.458,5.631-3.85
						l3.463-17.938c0.266-2.402-1.35-4.579-3.605-4.865l0,0c-2.256-0.281-4.3,1.436-4.565,3.84L160.637,121.106z"/>
				</g>
				<path fill="#616163" d="M106.681,49.948c-8.468-0.4-22.354,10.068-19.047,38.525c1.622,13.956,7.954,33.119,18.022,37.862
					c3.219,3.279,6.965,6.035,11.197,8.073c21.203,10.209,51.938-10.492,55.609-43.161
					C178.622,36.394,122.295,35.586,106.681,49.948z"/>
				<path fill="#FBEEBF" d="M165.088,94.442c0,25.791-5.283,63.682-34.72,63.682s-34.721-37.891-34.721-63.682
					c0-25.794,15.544-32.248,34.721-32.248S165.088,68.648,165.088,94.442z"/>
				<path fill="#616163" d="M130.368,60.465c-19.888,0-36.011,6.697-36.011,33.449c0,0.99,0.01,1.998,0.027,3.014l13.291-18.37
					c5.258,5.919,13.671,11.346,23.795,14.744c13.986,4.699,27.385,4.232,34.889-0.414
					C165.946,67.005,149.998,60.465,130.368,60.465z"/>
			</g>
			<path fill="#616163" d="M165.477,101.896c-15.197-3.202-31.646,1.875-35.109,1.875c-3.461,0-19.911-5.077-35.107-1.875
				c-0.117,4.614,0,4.483,0.42,4.673c4.902,2.217-0.105,15.462,15.945,17.414c3.886,0.472,8.204-0.297,11.25-3.27
				c4.918-4.8,3.673-9.67,5.596-10.955c1.311-0.876,2.484-0.876,3.795,0c1.923,1.284,0.678,6.155,5.595,10.955
				c3.046,2.973,7.365,3.742,11.25,3.27c16.052-1.952,11.044-15.197,15.946-17.414C165.476,106.379,165.594,106.511,165.477,101.896
				z M112.317,122.008c-12.659-0.635-11.93-13.879-11.21-16.26c0.719-2.381,8.18-2.705,11.68-2.492
				c5.443,0.333,8.949,0.831,11.054,3.322C125.679,108.754,126.033,122.695,112.317,122.008z M148.419,122.008
				c-13.716,0.688-13.362-13.253-11.523-15.43c2.104-2.491,5.61-2.989,11.053-3.322c3.501-0.213,10.961,0.111,11.681,2.492
				C160.348,108.128,161.078,121.373,148.419,122.008z"/>
		</g>
		<g>
			<g>
				<path fill="#49494A" d="M24.693,253.646C30.213,256.424,36.43,258,43,258h11.075l-15.431-79.425L24.693,253.646z"/>
				<path fill="#49494A" d="M221.355,178.575L206.45,258H217c6.571,0,12.789-1.576,18.309-4.354L221.355,178.575z"/>
			</g>
			<path fill="#515153" d="M167.818,160.985l-10.623-3.353c0,0-11.551,15.652-27.162,15.652s-27.162-15.652-27.162-15.652
				l-10.623,3.353l-53.594,17.59L52.949,258h154.168l14.295-79.425L167.818,160.985z"/>
			<path fill="#779D78" d="M157.195,161.472c0,0-8.652,13.37-27.252,13.37c-18.599,0-25.584-13.236-25.584-13.236L121.191,258h13.46
				L157.195,161.472z"/>
			<g>
				<path fill="#608960" d="M134.006,172.137c-1.968,1.275-3.238,2.031-3.238,2.031c1.754-0.193,15.199,1.463,23.883,11.566
					C148.705,176.506,139.117,173.142,134.006,172.137z"/>
				<path fill="#608960" d="M105.416,185.734c8.683-10.103,22.128-11.759,23.882-11.565c0,0-1.271-0.756-3.239-2.031
					C120.948,173.142,111.359,176.506,105.416,185.734z"/>
			</g>
			<g>
				<path fill="#CA5640" d="M145.381,232.51c0-16.279-1.945-28.482-9.006-45.613c-0.846,0-3.502,0-6.342,0s-5.496,0-6.342,0
					c-7.061,17.13-9.007,29.333-9.007,45.613l5.416,25.49h19.865L145.381,232.51z"/>
				<path fill="#DC5E46" d="M130.033,171.703L130.033,171.703L130.033,171.703c-7.716,0-17.066-4.127-17.066-4.127
					s3.682,8.619,10.451,19.323c0.763,1.207,4.397,2.013,6.615,2.013l0,0l0,0c2.217,0,5.852-0.806,6.615-2.013
					c6.77-10.704,10.45-19.323,10.45-19.323S137.748,171.703,130.033,171.703z"/>
				<g>
					<path fill="#B74E3A" d="M130.033,188.912c-2.217,0-5.852-0.806-6.615-2.013c0.764,1.207,4.844,4.391,6.615,4.391
						c1.773,0,5.852-3.186,6.615-4.393C135.885,188.104,132.25,188.912,130.033,188.912z"/>
					<path fill="#B74E3A" d="M130.033,174.166c6.426,0,12.403,2.832,12.403,2.832c3.048-5.647,4.661-9.422,4.661-9.422
						s-9.352,4.127-17.064,4.127c-7.716,0-17.066-4.127-17.066-4.127s1.613,3.773,4.66,9.42
						C117.627,176.996,123.609,174.166,130.033,174.166z"/>
				</g>
			</g>
			<g>
				<g>
					<polygon fill="#616163" points="104.203,149.736 78.91,178.495 88.416,181.023 70.764,183.232 106.236,258 121.927,258 					
						"/>
					<polygon fill="#616163" points="189.302,185.289 171.801,181.944 181.426,180.032 155.816,149.736 133.42,258 149.211,258 
											"/>
				</g>
				<g>
					<path fill="#49494A" d="M109.296,180.846c-2.052,2.05-3.938,4.523-5.445,7.533c1.657-2.492,3.597-4.56,5.651-6.278
						L109.296,180.846z"/>
					<path fill="#49494A" d="M156.217,188.38c-1.789-3.571-4.104-6.402-6.606-8.644l-0.286,1.379
						C151.837,183.011,154.229,185.391,156.217,188.38z"/>
				</g>
			</g>
			<g>
				<path fill="#779D78" d="M130.717,171.678c0,0,22.877-14.612,24.147-24.433c6.272,15.658,3.585,33.566,1.679,41.784
					C149.34,173.734,132.621,171.452,130.717,171.678z"/>
				<path fill="#779D78" d="M129.349,171.678c0,0-22.878-14.612-24.147-24.433c-6.273,15.658-3.584,33.566-1.678,41.784
					C110.725,173.734,127.444,171.452,129.349,171.678z"/>
			</g>
		</g>
	</g>
</g>
</svg>
