<?xml version="1.0" encoding="utf-8"?>
<!-- Generator: Adobe Illustrator 16.0.4, SVG Export Plug-In . SVG Version: 6.00 Build 0)  -->
<!DOCTYPE svg PUBLIC "-//W3C//DTD SVG 1.1//EN" "http://www.w3.org/Graphics/SVG/1.1/DTD/svg11.dtd">
<svg version="1.1" id="planner" xmlns="http://www.w3.org/2000/svg" xmlns:xlink="http://www.w3.org/1999/xlink" x="0px" y="0px"
	 width="260px" height="260px" viewBox="0 0 260 260" enable-background="new 0 0 260 260" xml:space="preserve">
<circle fill="#EAE794" cx="130.478" cy="130" r="128"/>
<path fill="#CCC76E" d="M205.177,72.279c-1.431-1.021-3.174-1.628-5.058-1.628h-27.96l-17.762-17.762l-0.01,0.009
	c-2.588-2.583-14.495,4.891-29.264,17.753H63.943c-4.815,0-8.754,3.94-8.754,8.754v114.94c0,1.907,0.624,3.671,1.669,5.114
	l1.971,1.971l55.567,55.567c5.269,0.66,10.635,1.003,16.082,1.003c70.692,0,128-57.308,128-128c0-1.51-0.036-3.011-0.088-4.508
	l-51.146-51.146L205.177,72.279z"/>
<path fill="#616163" d="M208.875,194.345c0,4.816-3.94,8.754-8.756,8.754H63.943c-4.815,0-8.754-3.938-8.754-8.754V79.405
	c0-4.814,3.938-8.754,8.754-8.754H200.12c4.815,0,8.756,3.94,8.756,8.754V194.345z"/>
<rect x="135.322" y="78.514" fill="#FBEEBF" width="65.493" height="116.723"/>
<g>
	<path fill="#BCB38F" d="M194.768,119.609h-53.401c-0.268,0-0.485-0.218-0.485-0.487c0-0.269,0.218-0.486,0.485-0.486h53.401
		c0.269,0,0.487,0.217,0.487,0.486C195.255,119.392,195.037,119.609,194.768,119.609z"/>
	<path fill="#BCB38F" d="M194.768,132.364h-53.401c-0.268,0-0.485-0.216-0.485-0.486c0-0.268,0.218-0.486,0.485-0.486h53.401
		c0.269,0,0.487,0.218,0.487,0.486C195.255,132.147,195.037,132.364,194.768,132.364z"/>
	<path fill="#BCB38F" d="M194.768,145.119h-53.401c-0.268,0-0.485-0.216-0.485-0.486c0-0.269,0.218-0.487,0.485-0.487h53.401
		c0.269,0,0.487,0.218,0.487,0.487C195.255,144.903,195.037,145.119,194.768,145.119z"/>
	<path fill="#BCB38F" d="M194.768,157.875h-53.401c-0.268,0-0.485-0.217-0.485-0.487c0-0.268,0.218-0.486,0.485-0.486h53.401
		c0.269,0,0.487,0.218,0.487,0.486C195.255,157.658,195.037,157.875,194.768,157.875z"/>
	<path fill="#BCB38F" d="M194.768,170.631h-53.401c-0.268,0-0.485-0.218-0.485-0.487c0-0.269,0.218-0.486,0.485-0.486h53.401
		c0.269,0,0.487,0.217,0.487,0.486C195.255,170.414,195.037,170.631,194.768,170.631z"/>
	<path fill="#BCB38F" d="M194.768,183.387h-53.401c-0.268,0-0.485-0.218-0.485-0.486c0-0.271,0.218-0.487,0.485-0.487h53.401
		c0.269,0,0.487,0.216,0.487,0.487C195.255,183.168,195.037,183.387,194.768,183.387z"/>
</g>
<path fill="#BCB38F" d="M194.768,107.451h-53.401c-0.536,0-0.972-0.435-0.972-0.973s0.436-0.973,0.972-0.973h53.401
	c0.536,0,0.974,0.435,0.974,0.973S195.304,107.451,194.768,107.451z"/>
<g>
	<rect x="140.74" y="96.826" fill="#BCB38F" width="1.683" height="1.685"/>
	<rect x="140.74" y="99.482" fill="#BCB38F" width="1.683" height="1.684"/>
	<rect x="143.394" y="99.482" fill="#BCB38F" width="1.684" height="1.684"/>
	<rect x="143.394" y="96.826" fill="#BCB38F" width="1.684" height="1.685"/>
	<rect x="143.394" y="94.169" fill="#BCB38F" width="1.684" height="1.684"/>
	<rect x="140.74" y="94.169" fill="#BCB38F" width="1.683" height="1.684"/>
	<rect x="143.394" y="91.513" fill="#BCB38F" width="1.684" height="1.684"/>
	<rect x="143.394" y="88.857" fill="#BCB38F" width="1.684" height="1.684"/>
	<rect x="143.394" y="86.201" fill="#BCB38F" width="1.684" height="1.683"/>
	<rect x="143.394" y="83.545" fill="#BCB38F" width="1.684" height="1.683"/>
	<rect x="146.051" y="99.482" fill="#BCB38F" width="1.684" height="1.684"/>
	<rect x="146.051" y="96.826" fill="#BCB38F" width="1.684" height="1.685"/>
	<rect x="146.051" y="94.169" fill="#BCB38F" width="1.684" height="1.684"/>
	<rect x="146.051" y="91.513" fill="#BCB38F" width="1.684" height="1.684"/>
	<rect x="146.051" y="88.857" fill="#BCB38F" width="1.684" height="1.684"/>
	<rect x="146.051" y="86.201" fill="#BCB38F" width="1.684" height="1.683"/>
	<rect x="146.051" y="83.545" fill="#BCB38F" width="1.684" height="1.683"/>
	<rect x="148.708" y="99.482" fill="#BCB38F" width="1.684" height="1.684"/>
	<rect x="148.708" y="96.826" fill="#BCB38F" width="1.684" height="1.685"/>
	<rect x="151.364" y="96.826" fill="#BCB38F" width="1.684" height="1.685"/>
	<rect x="148.708" y="94.169" fill="#BCB38F" width="1.684" height="1.684"/>
	<rect x="151.364" y="94.169" fill="#BCB38F" width="1.684" height="1.684"/>
	<rect x="148.708" y="91.513" fill="#BCB38F" width="1.684" height="1.684"/>
	<rect x="151.364" y="91.513" fill="#BCB38F" width="1.684" height="1.684"/>
	<rect x="148.708" y="88.857" fill="#BCB38F" width="1.684" height="1.684"/>
	<rect x="151.364" y="88.857" fill="#BCB38F" width="1.684" height="1.684"/>
	<rect x="148.708" y="86.201" fill="#BCB38F" width="1.684" height="1.683"/>
	<rect x="151.364" y="86.201" fill="#BCB38F" width="1.684" height="1.683"/>
	<rect x="148.708" y="83.545" fill="#BCB38F" width="1.684" height="1.683"/>
	<rect x="151.364" y="83.545" fill="#BCB38F" width="1.684" height="1.683"/>
</g>
<g>
	<rect x="175.315" y="82.89" fill="#779D78" width="19.453" height="1.965"/>
	<rect x="175.315" y="87.133" fill="#779D78" width="19.453" height="1.964"/>
	<rect x="175.315" y="91.376" fill="#779D78" width="19.453" height="1.964"/>
</g>
<rect x="63.248" y="78.514" fill="#FBEEBF" width="65.495" height="116.723"/>
<g>
	<g>
		<path fill="#BCB38F" d="M78.887,145.077h-8.021c-0.269,0-0.485-0.218-0.485-0.486v-8.022c0-0.269,0.217-0.487,0.485-0.487h8.021
			c0.27,0,0.488,0.218,0.488,0.487v8.022C79.375,144.859,79.157,145.077,78.887,145.077z M71.353,144.104h7.049v-7.049h-7.049
			V144.104z"/>
		<path fill="#BCB38F" d="M78.887,157.847h-8.021c-0.269,0-0.485-0.217-0.485-0.487v-8.021c0-0.269,0.217-0.486,0.485-0.486h8.021
			c0.27,0,0.488,0.217,0.488,0.486v8.021C79.375,157.63,79.157,157.847,78.887,157.847z M71.353,156.874h7.049v-7.048h-7.049
			V156.874z"/>
		<path fill="#BCB38F" d="M78.887,170.617h-8.021c-0.269,0-0.485-0.218-0.485-0.487v-8.02c0-0.271,0.217-0.487,0.485-0.487h8.021
			c0.27,0,0.488,0.216,0.488,0.487v8.02C79.375,170.399,79.157,170.617,78.887,170.617z M71.353,169.644h7.049v-7.048h-7.049
			V169.644z"/>
		<path fill="#BCB38F" d="M78.887,183.387h-8.021c-0.269,0-0.485-0.218-0.485-0.486v-8.022c0-0.269,0.217-0.487,0.485-0.487h8.021
			c0.27,0,0.488,0.218,0.488,0.487v8.022C79.375,183.168,79.157,183.387,78.887,183.387z M71.353,182.414h7.049v-7.048h-7.049
			V182.414z"/>
	</g>
	<g>
		<path fill="#BCB38F" d="M124.041,145.077H82.778c-0.269,0-0.485-0.218-0.485-0.486c0-0.27,0.217-0.487,0.485-0.487h41.263
			c0.269,0,0.485,0.217,0.485,0.487C124.526,144.859,124.309,145.077,124.041,145.077z"/>
		<path fill="#BCB38F" d="M124.041,157.847H82.778c-0.269,0-0.485-0.217-0.485-0.487c0-0.268,0.217-0.486,0.485-0.486h41.263
			c0.269,0,0.485,0.218,0.485,0.486C124.526,157.63,124.309,157.847,124.041,157.847z"/>
		<path fill="#BCB38F" d="M124.041,170.617H82.778c-0.269,0-0.485-0.218-0.485-0.487c0-0.269,0.217-0.486,0.485-0.486h41.263
			c0.269,0,0.485,0.217,0.485,0.486C124.526,170.399,124.309,170.617,124.041,170.617z"/>
		<path fill="#BCB38F" d="M124.041,183.387H82.778c-0.269,0-0.485-0.218-0.485-0.486c0-0.271,0.217-0.487,0.485-0.487h41.263
			c0.269,0,0.485,0.216,0.485,0.487C124.526,183.168,124.309,183.387,124.041,183.387z"/>
	</g>
</g>
<path fill="#BCB38F" d="M122.256,107.451H68.858c-0.538,0-0.974-0.435-0.974-0.973s0.436-0.973,0.974-0.973h53.398
	c0.539,0,0.974,0.435,0.974,0.973S122.795,107.451,122.256,107.451z"/>
<g>
	<path fill="#779D78" d="M79.614,92.619c0.562-0.732,0.86-1.602,0.86-2.517c0-2.284-1.858-4.144-4.142-4.144
		c-2.282,0-4.139,1.86-4.139,4.144c0,0.76,0.619,1.378,1.378,1.378c0.764,0,1.383-0.619,1.383-1.378
		c0-0.762,0.619-1.381,1.378-1.381c0.761,0,1.381,0.62,1.381,1.381c0,0.76-0.62,1.376-1.381,1.376s-1.378,0.62-1.378,1.381
		c0,0.76,0.617,1.377,1.408,1.377c0.004,0,0.044,0,0.052,0c0.926,0,1.683,0.757,1.683,1.687c0,0.928-0.757,1.683-1.683,1.683
		c-0.931,0-1.684-0.754-1.684-1.683c0-0.761-0.621-1.381-1.382-1.381c-0.762,0-1.377,0.62-1.377,1.381
		c0,2.449,1.99,4.445,4.442,4.445c2.453,0,4.445-1.997,4.445-4.445c0-1.142-0.438-2.228-1.235-3.062
		C79.562,92.794,79.555,92.689,79.614,92.619z"/>
	<path fill="#779D78" d="M88.396,97.607h-0.875c-0.104,0-0.188-0.083-0.188-0.188l-0.031-10.092
		c-0.004-0.566-0.356-1.084-0.888-1.285c-0.158-0.062-0.326-0.09-0.495-0.09c-0.386,0-0.761,0.166-1.024,0.454l-2.497,2.768
		c-0.244,0.273-0.373,0.627-0.354,0.995c0.021,0.369,0.181,0.711,0.453,0.955c0.255,0.229,0.583,0.356,0.927,0.356
		c0.295,0,0.592-0.097,0.828-0.277c0.032-0.028,0.074-0.038,0.112-0.038c0.029,0,0.055,0.004,0.086,0.021
		c0.061,0.03,0.102,0.095,0.102,0.167l0.021,6.065c0,0.047-0.021,0.099-0.055,0.131c-0.034,0.039-0.084,0.056-0.133,0.056h-0.912
		c-0.761,0-1.379,0.622-1.379,1.38c0,0.764,0.618,1.382,1.379,1.382h4.923c0.759,0,1.38-0.619,1.38-1.382
		C89.776,98.229,89.155,97.607,88.396,97.607z"/>
</g>
<g>
	<g>
		<g>
			<circle fill="#DC5E46" cx="122.732" cy="112.861" r="3.283"/>
			<circle fill="#DC5E46" cx="141.332" cy="112.861" r="3.282"/>
		</g>
		<g>
			<path fill="#E6DAAF" d="M141.25,110.998h-18.438c-1.068,0-1.945,0.838-1.945,1.864c0,1.025,0.877,1.864,1.945,1.864h18.438
				c1.07,0,1.945-0.839,1.945-1.864C143.196,111.835,142.321,110.998,141.25,110.998z"/>
			<path fill="#D1C69F" d="M122.812,114.726h18.438c1.07,0,1.945-0.839,1.945-1.864h-22.329
				C120.867,113.887,121.744,114.726,122.812,114.726z"/>
		</g>
	</g>
	<g>
		<g>
			<circle fill="#DC5E46" cx="122.732" cy="138.204" r="3.283"/>
			<circle fill="#DC5E46" cx="141.332" cy="138.204" r="3.282"/>
		</g>
		<g>
			<path fill="#E6DAAF" d="M141.25,136.338h-18.438c-1.068,0-1.945,0.84-1.945,1.865c0,1.025,0.877,1.865,1.945,1.865h18.438
				c1.07,0,1.945-0.84,1.945-1.865C143.196,137.178,142.321,136.338,141.25,136.338z"/>
			<path fill="#D1C69F" d="M122.812,140.068h18.438c1.07,0,1.945-0.84,1.945-1.865h-22.329
				C120.867,139.229,121.744,140.068,122.812,140.068z"/>
		</g>
	</g>
</g>
<g>
	<g>
		<path fill="#F7D33B" d="M153.866,58.189l-0.009,0.016c-1.263,2.888-3.642,6.721-6.914,11.191l1.323,1.322l-18.348,21.996
			c-0.956-0.195-1.985,0.076-2.725,0.816c-1.165,1.165-1.17,3.048-0.02,4.223l27.871-27.873L153.866,58.189z"/>
		<path fill="#CEAE29" d="M132.177,94.781l23.056-23.056l-0.188-1.844l-27.871,27.873c0.007,0.007,0.013,0.016,0.02,0.024
			c1.172,1.173,3.074,1.173,4.246,0.001C132.251,96.965,132.488,95.808,132.177,94.781z"/>
	</g>
	<path fill="#616163" d="M75.214,132.075c-0.331-0.33-0.329-0.864,0-1.192l2.235-2.235c0.329-0.329,0.862-0.329,1.192,0
		c0.329,0.33,0.329,0.864,0,1.193l-2.235,2.235C76.078,132.403,75.542,132.403,75.214,132.075z"/>
	<g>
		<path fill="#F7D33B" d="M82.778,116.168c-5.01,7.225-7.271,12.411-5.67,14.013l9.842-9.841L82.778,116.168z"/>
		<path fill="#CEAE29" d="M77.108,130.181c1.603,1.603,6.788-0.66,14.013-5.669l-4.171-4.171L77.108,130.181z"/>
	</g>
	<g>
		<path fill="#DC5E46" d="M115.894,91.395l-6.258-6.258c-0.048,0.047-0.097,0.096-0.146,0.143
			c-11.445,11.446-20.918,22.532-26.713,30.888l4.172,4.172L115.894,91.395z"/>
		<path fill="#CA5640" d="M122.151,97.652l-6.257-6.257L86.95,120.34l4.171,4.171c8.356-5.796,19.441-15.267,30.887-26.714
			C122.056,97.748,122.104,97.701,122.151,97.652z"/>
	</g>
	<g>
		<path fill="#CEAE29" d="M115.894,91.395l6.257,6.257c1.104-1.106,2.188-2.208,3.252-3.305l-6.23-6.232L115.894,91.395z"/>
		<path fill="#F7D33B" d="M119.172,88.116l-6.231-6.231c-1.098,1.065-2.2,2.147-3.305,3.253l6.258,6.258L119.172,88.116z"/>
	</g>
	<g>
		<path fill="#CA5640" d="M125.403,94.348c19.457-20.016,32.256-38.181,28.987-41.449l-35.218,35.217L125.403,94.348z"/>
		<path fill="#DC5E46" d="M154.39,52.898c-3.269-3.27-21.433,9.53-41.449,28.986l6.231,6.231L154.39,52.898z"/>
	</g>
</g>
</svg>
