<?xml version="1.0" encoding="utf-8"?>
<!-- Generator: Adobe Illustrator 16.0.0, SVG Export Plug-In . SVG Version: 6.00 Build 0)  -->
<!DOCTYPE svg PUBLIC "-//W3C//DTD SVG 1.1//EN" "http://www.w3.org/Graphics/SVG/1.1/DTD/svg11.dtd">
<svg version="1.1" id="Layer_1" xmlns="http://www.w3.org/2000/svg" xmlns:xlink="http://www.w3.org/1999/xlink" x="0px" y="0px"
	 width="652.373px" height="144.215px" viewBox="0 0 652.373 144.215" enable-background="new 0 0 652.373 144.215"
	 xml:space="preserve">
<g>
	<path fill="#5A546F" d="M218.905,77.297V38.354l-15.167,38.943h-6.82l-15.074-38.943v38.943h-15.433v-59.85h21.447l12.47,32.48
		l12.562-32.48h21.446v59.85H218.905z"/>
	<path fill="#5A546F" d="M241.866,55.582c0-12.205,8.881-22.703,23.598-22.703c14.896,0,23.69,10.498,23.69,22.703
		c0,12.201-8.795,22.792-23.69,22.792C250.747,78.374,241.866,67.783,241.866,55.582z M274.975,55.582
		c0-5.743-3.41-10.498-9.511-10.498c-6.012,0-9.332,4.755-9.332,10.498c0,5.832,3.32,10.588,9.332,10.588
		C271.564,66.17,274.975,61.414,274.975,55.582z"/>
	<path fill="#5A546F" d="M296.414,77.297V33.956h13.818v14.896h15.521V33.956h13.818v43.341h-13.818V60.874h-15.521v16.423H296.414z
		"/>
	<path fill="#5A546F" d="M378.957,77.297V45.979h-15.521v31.318h-13.817V33.956h43.158v43.341H378.957z"/>
	<path fill="#5A546F" d="M428.389,77.297v-4.309c-2.689,3.23-7.894,5.385-13.457,5.385c-6.641,0-14.896-4.485-14.896-14.269
		c0-10.498,8.255-13.908,14.896-13.908c5.743,0,10.855,1.796,13.457,5.026v-5.205c0-3.769-3.228-6.28-8.791-6.28
		c-4.309,0-8.795,1.614-12.294,4.576l-4.935-8.705c5.562-4.755,13.01-6.73,19.65-6.73c10.408,0,20.188,3.857,20.188,17.318v27.1
		H428.389z M428.389,66.17v-3.857c-1.435-1.976-4.666-3.052-7.714-3.052c-3.682,0-6.909,1.613-6.909,5.023
		c0,3.41,3.229,5.026,6.909,5.026C423.723,69.311,426.954,68.234,428.389,66.17z"/>
	<path fill="#5A546F" d="M466.07,72.181v21.626h-13.819V33.956h13.819v5.024c3.408-4.125,7.896-6.101,12.83-6.101
		c10.858,0,19.023,8.076,19.023,22.703c0,14.717-8.165,22.792-19.023,22.792C474.056,78.374,469.658,76.488,466.07,72.181z
		 M483.838,55.582c0-6.462-4.129-10.498-9.514-10.498c-2.959,0-6.548,1.614-8.254,3.946v13.192c1.706,2.243,5.295,3.947,8.254,3.947
		C479.709,66.17,483.838,62.134,483.838,55.582z"/>
	<path fill="#5A546F" d="M505.097,77.297V33.956h13.818v14.896h15.521V33.956h13.818v43.341h-13.818V60.874h-15.521v16.423H505.097z
		"/>
	<path fill="#5A546F" d="M583.871,77.297v-4.309c-2.69,3.23-7.896,5.385-13.46,5.385c-6.643,0-14.896-4.485-14.896-14.269
		c0-10.498,8.254-13.908,14.896-13.908c5.742,0,10.858,1.796,13.46,5.026v-5.205c0-3.769-3.23-6.28-8.795-6.28
		c-4.309,0-8.791,1.614-12.29,4.576l-4.938-8.705c5.563-4.755,13.014-6.73,19.65-6.73c10.408,0,20.19,3.857,20.19,17.318v27.1
		H583.871z M583.871,66.17v-3.857c-1.436-1.976-4.665-3.052-7.718-3.052c-3.679,0-6.909,1.613-6.909,5.023
		c0,3.41,3.23,5.026,6.909,5.026C579.206,69.311,582.438,68.234,583.871,66.17z"/>
	<path fill="#5A546F" d="M604.861,55.582c0-13.55,10.14-22.703,23.688-22.703c9.332,0,15.164,4.129,17.767,7.986l-8.975,8.344
		c-1.703-2.512-4.486-4.126-8.165-4.126c-5.743,0-10.141,3.946-10.141,10.498c0,6.552,4.396,10.588,10.141,10.588
		c3.679,0,6.462-1.793,8.165-4.219l8.975,8.437c-2.603,3.768-8.435,7.987-17.767,7.987
		C615.001,78.374,604.861,69.222,604.861,55.582z"/>
</g>
<g>
	<rect x="128.843" y="92.752" fill="#779C78" width="15.833" height="51.463"/>
	<rect x="92.289" y="128.381" fill="#779C78" width="51.463" height="15.834"/>
</g>
<g>
	<rect x="0.464" y="127.245" fill="#779C78" width="51.463" height="15.832"/>
	<rect x="0.464" y="90.691" fill="#779C78" width="15.833" height="51.462"/>
</g>
<g>
	<rect y="0.928" fill="#779C78" width="15.833" height="51.463"/>
	<rect x="0.925" y="0.928" fill="#779C78" width="51.463" height="15.833"/>
</g>
<g>
	<rect x="93.213" fill="#779C78" width="51.463" height="15.836"/>
	<rect x="128.84" y="0.928" fill="#779C78" width="15.836" height="51.463"/>
</g>
<rect x="166.413" y="92.752" fill="#C28D39" width="481.125" height="7.916"/>
<g>
	<path fill="#484748" d="M168.745,128.722v7.228h-2.109v-18.758h2.109v2.024c0.984-1.378,2.671-2.361,4.584-2.361
		c3.571,0,6.046,2.699,6.046,7.114c0,4.387-2.475,7.144-6.046,7.144C171.473,131.113,169.841,130.241,168.745,128.722z
		 M177.153,123.969c0-3.009-1.631-5.23-4.359-5.23c-1.659,0-3.319,0.984-4.05,2.165v6.131c0.731,1.181,2.391,2.193,4.05,2.193
		C175.522,129.228,177.153,126.978,177.153,123.969z"/>
	<path fill="#484748" d="M182.078,123.969c0-3.937,2.812-7.114,6.693-7.114c4.106,0,6.524,3.205,6.524,7.283v0.534H184.3
		c0.168,2.56,1.968,4.696,4.893,4.696c1.547,0,3.122-0.618,4.19-1.715l1.012,1.378c-1.35,1.35-3.178,2.081-5.399,2.081
		C184.975,131.113,182.078,128.215,182.078,123.969z M188.743,118.598c-2.897,0-4.331,2.446-4.443,4.527h8.915
		C193.186,121.101,191.836,118.598,188.743,118.598z"/>
	<path fill="#484748" d="M208.347,119.048h-7.396v11.727h-2.109v-13.583h9.505V119.048z"/>
	<path fill="#484748" d="M211.246,130.775v-13.583h2.109v10.377l7.115-10.377h2.081v13.583h-2.109v-10.574l-7.171,10.574H211.246z"
		/>
	<path fill="#484748" d="M226.125,123.969c0-3.937,2.587-7.114,6.721-7.114s6.721,3.178,6.721,7.114
		c0,3.938-2.587,7.144-6.721,7.144S226.125,127.907,226.125,123.969z M237.346,123.969c0-2.756-1.603-5.23-4.5-5.23
		s-4.528,2.475-4.528,5.23c0,2.784,1.631,5.259,4.528,5.259S237.346,126.753,237.346,123.969z"/>
	<path fill="#484748" d="M243.143,130.775v-13.583h2.109v5.652h7.087v-5.652h2.109v13.583h-2.109v-6.074h-7.087v6.074H243.143z"/>
	<path fill="#484748" d="M267.303,130.775v-1.547c-1.125,1.237-2.672,1.885-4.5,1.885c-2.306,0-4.752-1.547-4.752-4.5
		c0-3.037,2.446-4.472,4.752-4.472c1.856,0,3.403,0.591,4.5,1.856v-2.446c0-1.828-1.462-2.869-3.431-2.869
		c-1.631,0-2.953,0.591-4.162,1.885l-0.984-1.463c1.462-1.519,3.206-2.249,5.427-2.249c2.869,0,5.259,1.293,5.259,4.583v9.337
		H267.303z M267.303,127.907v-2.56c-0.815-1.125-2.25-1.688-3.74-1.688c-1.969,0-3.347,1.237-3.347,2.981
		c0,1.715,1.378,2.953,3.347,2.953C265.053,129.594,266.487,129.032,267.303,127.907z"/>
	<path fill="#484748" d="M272.171,129.369c1.265,0,2.053-1.462,2.587-5.483l0.872-6.693h9.449v13.583h-2.109v-11.727h-5.484
		l-0.619,5.09c-0.619,5.062-2.081,6.975-4.696,6.975V129.369z"/>
	<path fill="#484748" d="M291.55,117.192v5.259h5.09c2.812,0,4.274,1.94,4.274,4.162c0,2.25-1.491,4.162-4.274,4.162h-7.199v-13.583
		H291.55z M291.55,124.307v4.611h4.865c1.519,0,2.334-0.956,2.334-2.306c0-1.321-0.788-2.306-2.334-2.306H291.55z"/>
	<path fill="#484748" d="M304.264,130.775v-13.583h2.109v5.652h7.087v-5.652h2.109v13.583h-2.109v-6.074h-7.087v6.074H304.264z"/>
	<path fill="#484748" d="M328.424,130.775v-1.547c-1.125,1.237-2.672,1.885-4.5,1.885c-2.306,0-4.752-1.547-4.752-4.5
		c0-3.037,2.446-4.472,4.752-4.472c1.856,0,3.403,0.591,4.5,1.856v-2.446c0-1.828-1.462-2.869-3.431-2.869
		c-1.631,0-2.953,0.591-4.162,1.885l-0.984-1.463c1.462-1.519,3.206-2.249,5.427-2.249c2.869,0,5.259,1.293,5.259,4.583v9.337
		H328.424z M328.424,127.907v-2.56c-0.815-1.125-2.25-1.688-3.74-1.688c-1.969,0-3.347,1.237-3.347,2.981
		c0,1.715,1.378,2.953,3.347,2.953C326.174,129.594,327.608,129.032,328.424,127.907z"/>
	<path fill="#484748" d="M334.445,130.775l3.628-5.343c-2.025-0.254-3.487-1.8-3.487-4.078c0-2.306,1.547-4.162,4.303-4.162h7.171
		v13.583h-2.109v-5.259h-3.712l-3.318,5.259H334.445z M343.95,123.66v-4.611h-4.837c-1.49,0-2.362,0.956-2.362,2.306
		s0.815,2.306,2.362,2.306H343.95z"/>
	<path fill="#484748" d="M357.032,123.969c0-4.021,2.728-7.114,6.777-7.114c2.475,0,3.937,1.012,4.978,2.361l-1.406,1.294
		c-0.9-1.237-2.053-1.771-3.459-1.771c-2.896,0-4.696,2.222-4.696,5.23s1.8,5.259,4.696,5.259c1.406,0,2.559-0.562,3.459-1.771
		l1.406,1.294c-1.041,1.35-2.503,2.362-4.978,2.362C359.76,131.113,357.032,128.019,357.032,123.969z"/>
	<path fill="#484748" d="M371.096,123.351c0-6.609,2.391-9.337,7.115-9.955c2.98-0.45,3.824-0.816,3.824-1.379h2.053
		c0,2.222-3.037,2.812-5.343,3.122c-4.021,0.562-5.23,2.306-5.709,4.612c0.984-1.547,2.7-2.896,5.118-2.896
		c3.853,0,6.355,3.233,6.355,7.086c0,3.909-2.503,7.172-6.692,7.172C373.655,131.113,371.096,127.85,371.096,123.351z
		 M382.316,123.941c0-2.728-1.603-5.202-4.499-5.202s-4.528,2.475-4.528,5.202c0,2.812,1.632,5.287,4.528,5.287
		S382.316,126.753,382.316,123.941z"/>
	<path fill="#484748" d="M390.362,117.192v5.259h5.09c2.812,0,4.274,1.94,4.274,4.162c0,2.25-1.49,4.162-4.274,4.162h-7.199v-13.583
		H390.362z M390.362,124.307v4.611h4.865c1.519,0,2.334-0.956,2.334-2.306c0-1.321-0.787-2.306-2.334-2.306H390.362z
		 M401.948,130.775v-13.583h2.109v13.583H401.948z"/>
	<path fill="#484748" d="M410.896,130.775v-11.727h-3.938v-1.856h10.012v1.856h-3.965v11.727H410.896z"/>
	<path fill="#484748" d="M419.081,123.969c0-3.937,2.588-7.114,6.722-7.114s6.721,3.178,6.721,7.114
		c0,3.938-2.587,7.144-6.721,7.144S419.081,127.907,419.081,123.969z M430.302,123.969c0-2.756-1.603-5.23-4.499-5.23
		s-4.527,2.475-4.527,5.23c0,2.784,1.631,5.259,4.527,5.259S430.302,126.753,430.302,123.969z"/>
	<path fill="#484748" d="M436.099,130.775v-13.583h7.48c2.39,0,3.824,1.435,3.824,3.487c0,1.631-1.04,2.728-2.193,3.094
		c1.378,0.337,2.475,1.771,2.475,3.318c0,2.193-1.462,3.684-3.965,3.684H436.099z M445.238,120.989c0-1.182-0.731-1.94-2.025-1.94
		h-5.005v3.824h5.005C444.535,122.873,445.238,122.057,445.238,120.989z M445.491,126.837c0-1.097-0.76-2.108-2.193-2.108h-5.09
		v4.189h5.09C444.647,128.918,445.491,128.131,445.491,126.837z"/>
	<path fill="#484748" d="M460.314,130.775v-1.547c-1.124,1.237-2.671,1.885-4.499,1.885c-2.306,0-4.753-1.547-4.753-4.5
		c0-3.037,2.447-4.472,4.753-4.472c1.856,0,3.402,0.591,4.499,1.856v-2.446c0-1.828-1.462-2.869-3.431-2.869
		c-1.631,0-2.952,0.591-4.162,1.885l-0.984-1.463c1.463-1.519,3.206-2.249,5.428-2.249c2.868,0,5.259,1.293,5.259,4.583v9.337
		H460.314z M460.314,127.907v-2.56c-0.815-1.125-2.249-1.688-3.74-1.688c-1.968,0-3.346,1.237-3.346,2.981
		c0,1.715,1.378,2.953,3.346,2.953C458.065,129.594,459.499,129.032,460.314,127.907z"/>
	<path fill="#484748" d="M466.336,130.775l3.628-5.343c-2.025-0.254-3.487-1.8-3.487-4.078c0-2.306,1.547-4.162,4.303-4.162h7.171
		v13.583h-2.109v-5.259h-3.712l-3.318,5.259H466.336z M475.841,123.66v-4.611h-4.837c-1.49,0-2.362,0.956-2.362,2.306
		s0.815,2.306,2.362,2.306H475.841z"/>
	<path fill="#484748" d="M498.962,130.775l-4.894-6.103l-2.249,2.222v3.881h-2.109v-13.583h2.109v7.228l7.143-7.228h2.672
		l-6.019,6.159l6.046,7.424H498.962z"/>
	<path fill="#484748" d="M503.437,123.969c0-3.937,2.588-7.114,6.722-7.114s6.721,3.178,6.721,7.114
		c0,3.938-2.587,7.144-6.721,7.144S503.437,127.907,503.437,123.969z M514.657,123.969c0-2.756-1.603-5.23-4.499-5.23
		s-4.527,2.475-4.527,5.23c0,2.784,1.631,5.259,4.527,5.259S514.657,126.753,514.657,123.969z"/>
	<path fill="#484748" d="M532.209,130.775v-10.658l-4.415,10.658h-0.788l-4.442-10.658v10.658h-2.109v-13.583h2.784l4.162,10.067
		l4.105-10.067h2.812v13.583H532.209z"/>
	<path fill="#484748" d="M547.876,130.775v-11.727h-7.086v11.727h-2.109v-13.583h11.305v13.583H547.876z"/>
	<path fill="#484748" d="M562.84,130.775v-1.547c-1.124,1.237-2.671,1.885-4.499,1.885c-2.306,0-4.753-1.547-4.753-4.5
		c0-3.037,2.447-4.472,4.753-4.472c1.856,0,3.402,0.591,4.499,1.856v-2.446c0-1.828-1.462-2.869-3.431-2.869
		c-1.631,0-2.952,0.591-4.162,1.885l-0.984-1.463c1.463-1.519,3.206-2.249,5.428-2.249c2.868,0,5.259,1.293,5.259,4.583v9.337
		H562.84z M562.84,127.907v-2.56c-0.815-1.125-2.249-1.688-3.74-1.688c-1.968,0-3.346,1.237-3.346,2.981
		c0,1.715,1.378,2.953,3.346,2.953C560.591,129.594,562.024,129.032,562.84,127.907z"/>
	<path fill="#484748" d="M569.312,130.775v-13.583h2.109v5.652h7.086v-5.652h2.109v13.583h-2.109v-6.074h-7.086v6.074H569.312z"/>
	<path fill="#484748" d="M584.979,130.775v-13.583h2.109v10.377l7.114-10.377h2.081v13.583h-2.109v-10.574l-7.171,10.574H584.979z"
		/>
	<path fill="#484748" d="M600.195,130.775l3.628-5.343c-2.025-0.254-3.487-1.8-3.487-4.078c0-2.306,1.547-4.162,4.303-4.162h7.171
		v13.583H609.7v-5.259h-3.712l-3.318,5.259H600.195z M609.7,123.66v-4.611h-4.837c-1.49,0-2.362,0.956-2.362,2.306
		s0.815,2.306,2.362,2.306H609.7z"/>
</g>
</svg>
